<svg xmlns="http://www.w3.org/2000/svg" viewBox="0 0 320 540" width="100%" height="100%" role="img" aria-label="Toyota HiAce 13-Seat Van Top-Down Seating Diagram">
  <title>Toyota HiAce 13-Seat Grand Cabin Seating Diagram</title>

  <!-- Van Exterior Body Outline -->
  <rect x="45" y="30" width="230" height="480" rx="20" fill="#0f172a" stroke="#334155" stroke-width="4"/>

  <!-- Front Header -->
  <text x="160" y="55" fill="#ef4444" font-size="11" font-weight="900" text-anchor="middle" letter-spacing="2">▲ FRONT / ROAD ▲</text>

  <!-- Cockpit Row 1 -->
  <g transform="translate(170, 70)">
    <rect x="0" y="0" width="60" height="55" rx="8" fill="#7f1d1d" stroke="#ef4444" stroke-width="2"/>
    <text x="30" y="33" fill="#fca5a5" font-size="8" font-weight="bold" text-anchor="middle">DRIVER</text>
  </g>
  <g transform="translate(90, 70)">
    <rect x="0" y="0" width="60" height="55" rx="8" fill="#1e293b" stroke="#3b82f6" stroke-width="2"/>
    <text x="30" y="33" fill="#93c5fd" font-size="9" font-weight="bold" text-anchor="middle">PAX 01</text>
  </g>

  <!-- Row 2: 1 + 2 with Center Aisle -->
  <g transform="translate(60, 140)">
    <!-- Left Single -->
    <rect x="0" y="0" width="55" height="55" rx="8" fill="#1e293b" stroke="#3b82f6" stroke-width="2"/>
    <text x="27.5" y="33" fill="#93c5fd" font-size="9" font-weight="bold" text-anchor="middle">PAX 02</text>

    <!-- Aisle -->
    <rect x="62" y="0" width="30" height="55" fill="#1e293b" stroke="#334155" stroke-dasharray="2 2" rx="4"/>
    <text x="77" y="33" fill="#64748b" font-size="7" font-weight="bold" text-anchor="middle">AISLE</text>

    <!-- Right Double -->
    <rect x="98" y="0" width="50" height="55" rx="8" fill="#1e293b" stroke="#3b82f6" stroke-width="2"/>
    <text x="123" y="33" fill="#93c5fd" font-size="9" font-weight="bold" text-anchor="middle">PAX 03</text>

    <rect x="152" y="0" width="50" height="55" rx="8" fill="#1e293b" stroke="#3b82f6" stroke-width="2"/>
    <text x="177" y="33" fill="#93c5fd" font-size="9" font-weight="bold" text-anchor="middle">PAX 04</text>
  </g>

  <!-- Row 3: 1 + 2 -->
  <g transform="translate(60, 210)">
    <rect x="0" y="0" width="55" height="55" rx="8" fill="#1e293b" stroke="#3b82f6" stroke-width="2"/>
    <text x="27.5" y="33" fill="#93c5fd" font-size="9" font-weight="bold" text-anchor="middle">PAX 05</text>

    <rect x="62" y="0" width="30" height="55" fill="#1e293b" stroke="#334155" stroke-dasharray="2 2" rx="4"/>

    <rect x="98" y="0" width="50" height="55" rx="8" fill="#1e293b" stroke="#3b82f6" stroke-width="2"/>
    <text x="123" y="33" fill="#93c5fd" font-size="9" font-weight="bold" text-anchor="middle">PAX 06</text>

    <rect x="152" y="0" width="50" height="55" rx="8" fill="#1e293b" stroke="#3b82f6" stroke-width="2"/>
    <text x="177" y="33" fill="#93c5fd" font-size="9" font-weight="bold" text-anchor="middle">PAX 07</text>
  </g>

  <!-- Row 4: 1 + 2 -->
  <g transform="translate(60, 280)">
    <rect x="0" y="0" width="55" height="55" rx="8" fill="#1e293b" stroke="#3b82f6" stroke-width="2"/>
    <text x="27.5" y="33" fill="#93c5fd" font-size="9" font-weight="bold" text-anchor="middle">PAX 08</text>

    <rect x="62" y="0" width="30" height="55" fill="#1e293b" stroke="#334155" stroke-dasharray="2 2" rx="4"/>

    <rect x="98" y="0" width="50" height="55" rx="8" fill="#1e293b" stroke="#3b82f6" stroke-width="2"/>
    <text x="123" y="33" fill="#93c5fd" font-size="9" font-weight="bold" text-anchor="middle">PAX 09</text>

    <rect x="152" y="0" width="50" height="55" rx="8" fill="#1e293b" stroke="#3b82f6" stroke-width="2"/>
    <text x="177" y="33" fill="#93c5fd" font-size="9" font-weight="bold" text-anchor="middle">PAX 10</text>
  </g>

  <!-- Row 5 Rear Bench (4 Seats) -->
  <g transform="translate(60, 350)">
    <rect x="0" y="0" width="48" height="55" rx="8" fill="#1e293b" stroke="#3b82f6" stroke-width="2"/>
    <text x="24" y="33" fill="#93c5fd" font-size="8" font-weight="bold" text-anchor="middle">PAX 11</text>

    <rect x="52" y="0" width="48" height="55" rx="8" fill="#1e293b" stroke="#3b82f6" stroke-width="2"/>
    <text x="76" y="33" fill="#93c5fd" font-size="8" font-weight="bold" text-anchor="middle">PAX 12</text>

    <rect x="104" y="0" width="48" height="55" rx="8" fill="#1e293b" stroke="#3b82f6" stroke-width="2"/>
    <text x="128" y="33" fill="#93c5fd" font-size="8" font-weight="bold" text-anchor="middle">PAX 13</text>

    <rect x="156" y="0" width="46" height="55" rx="8" fill="#1e293b" stroke="#3b82f6" stroke-width="2"/>
    <text x="179" y="33" fill="#93c5fd" font-size="8" font-weight="bold" text-anchor="middle">PAX 14</text>
  </g>

  <!-- Rear Luggage Cargo Deck -->
  <g transform="translate(60, 415)">
    <rect x="0" y="0" width="202" height="80" rx="10" fill="#022c22" stroke="#10b981" stroke-dasharray="4 2" stroke-width="2"/>
    <text x="101" y="20" fill="#34d399" font-size="10" font-weight="900" text-anchor="middle" letter-spacing="1">REAR BAGGAGE CARGO DECK</text>
    <text x="101" y="45" fill="#a7f3d0" font-size="9" font-weight="bold" text-anchor="middle">Approx. 8 Large Suitcases + Cabin Bags</text>
  </g>
</svg>